# xmcd
#
# Track frame offsets:
#	150
#	14109
#	32531
#	46968
#	66784
#	84293
#	93557
#	107724
#	117325
#	136206
#	153828
#	179230
#	191317
#	200878
#
# Disc length: 2977 seconds
#
# Revision: 0
# Processed by: cddbd v1.5.1PL0 Copyright (c) Steve Scherf et al.
# Submitted via: EasyCDDAExtractor 8.2.0.1
#
DISCID=c00b9f0e
DTITLE=Frank Black - Honeycomb
DYEAR=2005
DGENRE=country
TTITLE0=Selkie Bride
TTITLE1=I Burn Today
TTITLE2=Lone Child
TTITLE3=Another Velvet Nightmare
TTITLE4=Dark End Of The Street
TTITLE5=Go Find Your Saint
TTITLE6=Song Of The Shrimp
TTITLE7=Strange Goodbye
TTITLE8=Sunny Sunday Mill Valley Groove Day
TTITLE9=Honeycomb
TTITLE10=My Life Is In Storage
TTITLE11=Atom In My Heart
TTITLE12=Violet
TTITLE13=Sing For Joy
EXTD=
EXTT0=
EXTT1=
EXTT2=
EXTT3=
EXTT4=
EXTT5=
EXTT6=
EXTT7=
EXTT8=
EXTT9=
EXTT10=
EXTT11=
EXTT12=
EXTT13=
PLAYORDER=
